<svg xmlns="http://www.w3.org/2000/svg" width="16" height="16" viewBox="0 0 16 16">
  <defs>
    <style>
      .cls-1 {
        fill-rule: evenodd;
      }
    </style>
  </defs>
  <path class="cls-1" d="M7.293,0A6.826,6.826,0,0,1,8.707.031H9.022V0.063h0.22V0.094H9.43V0.126H9.587V0.157H9.745l1.069,0.314V0.5h0.063V0.534l0.189,0.031V0.6l0.126,0.031V0.66h0.094V0.692l0.189,0.063V0.786h0.063V0.817H11.6V0.849h0.063V0.88h0.063V0.912h0.063l0.063,0.063h0.063l0.031,0.063,0.126,0.031L12.1,1.132l0.126,0.031V1.195l0.094,0.031,0.031,0.063L12.479,1.32l0.063,0.094h0.063l0.031,0.063H12.7l0.063,0.094h0.063l0.063,0.094h0.063l0.094,0.126h0.063l0.126,0.157H13.3l0.377,0.409L14.051,2.7V2.766l0.157,0.126V2.955l0.126,0.094V3.112l0.094,0.063V3.238L14.523,3.3V3.363l0.063,0.031V3.458L14.68,3.521l0.031,0.126,0.063,0.031,0.031,0.094h0.031V3.835h0.031V3.9l0.063,0.031,0.031,0.126,0.063,0.031V4.149l0.063,0.063V4.275H15.12V4.338h0.032V4.4h0.031V4.464h0.031V4.527h0.031l0.063,0.189H15.34V4.809h0.031L15.4,4.935h0.031l0.031,0.189H15.5V5.187h0.031L15.56,5.375h0.031V5.47h0.031V5.564h0.031V5.658h0.032V5.752h0.031V5.878h0.031V6A5.4,5.4,0,0,1,16,7.67a4.608,4.608,0,0,1-.031,1.037l-0.063.723H15.874V9.587H15.843V9.745H15.811V9.87H15.78V10H15.749v0.126H15.717v0.126H15.686v0.094H15.654v0.094H15.623v0.094H15.591v0.094H15.56l-0.031.189H15.5v0.063H15.466l-0.031.189H15.4l-0.031.126H15.34v0.094H15.308l-0.063.189H15.214v0.063H15.183V11.6H15.151v0.063H15.12v0.063H15.088v0.063l-0.063.063v0.063l-0.063.031-0.031.126-0.063.031-0.031.126H14.806l-0.031.094-0.063.031-0.031.126-0.094.063v0.063l-0.063.031V12.7l-0.094.063v0.063l-0.094.063v0.063l-0.126.094v0.063l-0.157.126V13.3l-0.409.377-0.346.377H13.234l-0.126.157H13.045l-0.094.126H12.888l-0.063.094H12.762l-0.063.094H12.637l-0.031.063H12.542l-0.063.094-0.126.031-0.031.063-0.094.031v0.031l-0.126.031-0.031.063-0.126.031-0.031.063H11.851l-0.063.063H11.725V15.12H11.662v0.032H11.6v0.031H11.536v0.031H11.474v0.031l-0.189.063V15.34H11.191v0.031l-0.126.031v0.031l-0.189.031V15.5H10.813v0.031l-0.189.031v0.031H10.531v0.031H10.436v0.031H10.342v0.032H10.248v0.031H10.122v0.031H10V15.78H9.87v0.031H9.745v0.031H9.587v0.031H9.43v0.031H9.242v0.031H9.022v0.032H8.707V16H7.67A5.377,5.377,0,0,1,6,15.749H5.878V15.717H5.752V15.686H5.658V15.654H5.564V15.623H5.47V15.591H5.375V15.56l-0.189-.031V15.5H5.124V15.466l-0.189-.031V15.4l-0.126-.031V15.34H4.715V15.308l-0.189-.063V15.214H4.464V15.183H4.4V15.151H4.338V15.12H4.275V15.088H4.212l-0.063-.063H4.086a7.972,7.972,0,0,1-2.295-1.98l-0.126-.094V12.888l-0.094-.063V12.762L1.477,12.7V12.637l-0.063-.031V12.542L1.32,12.479l-0.031-.126-0.063-.031-0.031-.094H1.163L1.132,12.1l-0.063-.031-0.031-.126-0.063-.031V11.851l-0.063-.063V11.725H0.88V11.662H0.849V11.6H0.817V11.536H0.786V11.474H0.754l-0.063-.189H0.66V11.191H0.629L0.6,11.065H0.566l-0.031-.189H0.5V10.813H0.472L0.44,10.625H0.409V10.531H0.377V10.436H0.346V10.342H0.314V10.248H0.283L0.251,10A5.973,5.973,0,0,1,0,8.11,3.669,3.669,0,0,1,.031,7.293l0.031-.534H0.094V6.57H0.126V6.413H0.157V6.255H0.189V6.13H0.22V6H0.251V5.878H0.283V5.752H0.314V5.658H0.346V5.564H0.377V5.47H0.409V5.375H0.44l0.031-.189H0.5V5.124H0.534l0.031-.189H0.6l0.031-.126H0.66V4.715H0.692l0.063-.189H0.786V4.464H0.817V4.4H0.849V4.338H0.88V4.275H0.912V4.212l0.063-.063V4.086l0.063-.031,0.031-.126L1.132,3.9l0.031-.126H1.195l0.031-.094,0.063-.031L1.32,3.521l0.094-.063V3.395l0.063-.031V3.3l0.094-.063V3.175l0.094-.063V3.049l0.126-.094V2.892l0.157-.126V2.7l0.377-.346L2.7,1.949H2.766l0.126-.157H2.955l0.094-.126H3.112l0.063-.094H3.238L3.3,1.477H3.363l0.031-.063H3.458L3.521,1.32l0.126-.031,0.031-.063,0.094-.031V1.163L3.9,1.132l0.031-.063,0.126-.031,0.031-.063H4.149l0.063-.063H4.275V0.88H4.338V0.849H4.4V0.817H4.464V0.786H4.527V0.754l0.189-.063V0.66H4.809V0.629L4.935,0.6V0.566l0.189-.031V0.5H5.187V0.472L5.375,0.44V0.409H5.47V0.377H5.564V0.346H5.658V0.314H5.752V0.283H5.878c0.158-.054.37-0.106,0.534-0.157H6.57V0.094H6.758V0.063h0.22V0.031A0.955,0.955,0,0,0,7.293,0Zm0.6,1.352V1.415a0.9,0.9,0,0,1-.189.063V1.54c-0.166.02-.146,0.1-0.314,0.126V1.729a0.774,0.774,0,0,0-.189.063V1.855c-0.088.01-.23,0.059-0.157,0.126H6.916V2.012a0.244,0.244,0,0,1-.126.031V2.106a0.212,0.212,0,0,0-.126.031V2.169H6.6L6.57,2.232H6.507l-0.031.063H6.381V2.358a0.774,0.774,0,0,0-.189.063V2.483c-0.166.02-.146,0.1-0.314,0.126V2.672a0.774,0.774,0,0,0-.189.063V2.8a0.21,0.21,0,0,0-.126.031V2.861H5.5V2.892H5.438l-0.063.094H5.281V3.018l-0.094.031-0.031.063-0.189.063C4.933,3.2,5,3.206,5,3.206V3.238H4.872V3.3a0.21,0.21,0,0,0-.126.031V3.363H4.684l-0.031.063H4.589l-0.031.063H4.464l-0.031.063H4.369l-0.031.063H4.275l-0.031.063H4.181l-0.031.063-0.126.031V3.8a0.236,0.236,0,0,1-.157.063V3.929a0.774,0.774,0,0,0-.189.063V4.055c-0.166.02-.146,0.1-0.314,0.126V4.244a0.774,0.774,0,0,0-.189.063V4.369C3.086,4.378,2.908,4.423,2.986,4.5H2.861l-0.031.063H2.766l-0.031.063a0.843,0.843,0,0,1-.283.126V4.809H2.358V4.872a0.21,0.21,0,0,0-.126.031V4.935H2.169L2.138,5H2.043V5.029l-0.094.031V5.124H1.855V5.187L1.7,5.218a0.2,0.2,0,0,1,0,.157H1.666v7.167a0.67,0.67,0,0,1,.189.252L1.98,12.888v0.063l0.157,0.126V13.14H2.169l0.063,0.094L3.049,14.02H3.112l0.094,0.126L3.3,14.177,3.332,14.24H3.395l0.063,0.094H3.521L3.552,14.4H3.615l0.063,0.094L3.8,14.523l0.031,0.063,0.094,0.031v0.031L4.055,14.68l0.031,0.063,0.126,0.032,0.031,0.063L4.432,14.9a1.91,1.91,0,0,0,.534.252V15.026H5l-0.031-.534V14.177H4.935v-0.6c-0.055-.19-0.072-0.473-0.126-0.66V12.605H4.778v-0.22H4.747V12.259H4.715V12.165L4.621,12.1V12.039l-0.063-.063V11.914L4.5,11.882V11.788H4.464V11.725H4.432V11.662l-0.063-.032-0.063-.189-0.063-.031V11.348H4.212V11.285l-0.063-.032V11.191l-0.063-.031V11.1H4.055V11.033H4.024V10.939H3.992V10.845H3.961V10.751H3.929V10.656H3.9V10.593H3.866a1.041,1.041,0,0,1,.063-0.5H3.961V9.9a0.585,0.585,0,0,0,.031-0.283H3.961V9.493H3.929V9.4H3.9V9.3H3.866V9.179H3.835V9.084H3.8V8.99H3.772V8.9H3.741v-0.5H3.709V8.047a1.5,1.5,0,0,0-.377-0.88V7.136L3.112,7.1V7.073H2.923V7.041H2.8V7.01H2.735V6.978H2.672L2.64,6.916H2.578V6.884H2.483V6.853H2.42V6.821H2.358V6.79a0.38,0.38,0,0,1-.283-0.22,0.673,0.673,0,0,1-.063-0.44H2.043V5.878H2.075c0.04-.166.18-0.134,0.377-0.126a2.386,2.386,0,0,0,.786.094l0.157-.22H3.521A0.667,0.667,0,0,1,3.8,5.6a1.475,1.475,0,0,1,1.163.44H5V6.161L5.092,6.444,5.375,6.916V7.01H5.407L5.564,7.827H5.6V7.89a0.969,0.969,0,0,1,.126.22H5.847a0.055,0.055,0,0,0,.031.031L5.91,8.33H6.13V8.393H6.381L6.475,8.519,6.884,8.55V8.582L7.01,8.613V8.644a2.234,2.234,0,0,0,.88.094V8.707H8.079V8.676l0.44-.031V8.613H8.707V8.582H8.9V8.55H9.084V8.519H9.336V8.487H9.493V8.456H9.807V8.424h0.251V8.393h0.6V8.361h0.031V8.393l0.723,0.031V8.456H11.5V8.487H11.6V8.519l0.22,0.031V8.582h0.063l0.032,0.063h0.126V8.676l0.126,0.031V8.739L12.354,8.77V8.8h0.063V8.833h0.094V8.864L12.7,8.927V8.959h0.063l0.063,0.094,0.094,0.031V9.147a0.369,0.369,0,0,1,.22.251l0.094,0.063,0.031,0.126,0.063,0.031L13.422,9.9l0.063,0.031,0.063,0.189H13.58l0.063,0.189h0.031V10.4h0.031v0.063h0.031v0.063h0.031v0.063H13.8v0.063h0.031l0.063,0.189h0.031l0.063,0.377a0.67,0.67,0,0,1-.44-0.314H13.485L12.857,9.776H12.825V9.839a0.227,0.227,0,0,1,.063.157,1.192,1.192,0,0,1-.063.817V11a1.511,1.511,0,0,0-.063.66,1.643,1.643,0,0,1,.063.252H12.794v0.251h0.031v0.44a0.78,0.78,0,0,0-.063.409h0.031v0.094l0.094,0.063v0.094h0.031v0.22h0.032l-0.032.534h0.032a1.824,1.824,0,0,1,.346-0.314l0.377-.409,0.189-.157V13.077l0.157-.126V12.888l0.126-.094V12.731l0.094-.063V12.605l0.094-.063V12.479l0.063-.031-0.032-.094V11.411H14.4v-0.5H14.365V5.375A0.046,0.046,0,0,0,14.4,5.312H14.365a0.512,0.512,0,0,0-.157-0.189H14.114V5.061L14.02,5.029V5H13.957V4.967H13.894L13.863,4.9l-0.126-.031-0.031-.063H13.611L13.58,4.747a0.359,0.359,0,0,0-.157-0.063V4.621c-0.166-.02-0.146-0.1-0.314-0.126V4.432L13.014,4.4V4.369H12.919l-0.031-.063H12.825l-0.031-.063H12.731L12.7,4.181H12.605l-0.031-.063H12.511l-0.031-.063H12.417V4.024a0.224,0.224,0,0,0-.126-0.031V3.929L12.2,3.9V3.866H12.1l-0.063-.094H11.976V3.741H11.914l-0.032-.063H11.819l-0.031-.063H11.725l-0.031-.063H11.6l-0.031-.063H11.5V3.458l-0.094-.031V3.363H11.285V3.3H11.191V3.238H11.1V3.175c-0.166-.02-0.146-0.1-0.314-0.126V2.986a0.211,0.211,0,0,1-.126-0.031V2.923H10.593l-0.031-.063H10.5L10.468,2.8H10.373l-0.032-.063H10.279V2.7a0.225,0.225,0,0,0-.126-0.031V2.609l-0.094-.031V2.546H10L9.965,2.483,9.776,2.42,9.682,2.295H9.587L9.556,2.232H9.493L9.462,2.169H9.4V2.138a0.223,0.223,0,0,0-.126-0.031V2.043a0.211,0.211,0,0,1-.126-0.031V1.98H9.084L9.053,1.917H8.99L8.959,1.855H8.9L8.864,1.792H8.8L8.77,1.729H8.707L8.676,1.666H8.582L8.55,1.6H8.487L8.456,1.54H8.393V1.509a0.279,0.279,0,0,0-.157-0.031V1.415A0.57,0.57,0,0,0,7.89,1.352ZM5.281,10.908a0.653,0.653,0,0,1-.031.283l-0.063.031L5.218,11.5H5.187l0.031,0.629H5.25l-0.031.094H5.25l0.031,0.189H5.312v0.063H5.344v0.157H5.375v0.094H5.407l0.031,0.126H5.47v0.063l0.063,0.032v0.063L5.6,13.045l0.031,0.126L5.69,13.2v0.063H5.721v0.126H5.752v0.031H5.721v0.031H5.752v0.063l0.126,0.094,0.031,0.22,0.063,0.032v0.063H6v0.063H6.035v0.566H6.067V14.68H6.1v0.063l0.094,0.063,0.094,0.283H6.318a0.077,0.077,0,0,1-.031.094v0.409a3.779,3.779,0,0,1,.692.126l1.069,0.031a2.981,2.981,0,0,0,.66-0.031H9.022l1.226-.252,1.069-.409V14.931H11.285q0.016-.471.031-0.943v-0.5h0.031V13.328h0.032V13.171h0.031l0.031-.346h0.031V12.731a2.134,2.134,0,0,0,.126-0.314h0.063a0.761,0.761,0,0,1,.566-0.377,2.04,2.04,0,0,1,.094-0.22l-0.031-.283-0.44-.126V11.379H11.788V11.348a0.566,0.566,0,0,0-.283.032l-0.314-.032-0.031-.126c-0.087-.023-0.07-0.009-0.094-0.094H11.033V11.033H11l-0.032-.094H10.845l-0.031.189H10.782v0.283H10.751l-0.031.377H10.688v0.094l-0.063.032-0.032.22H10.562v0.126H10.531v0.126H10.5v0.126H10.468v0.094H10.436l-0.031.157H10.373a0.242,0.242,0,0,1-.22.094V12.825H10V12.794H9.9V12.762H9.4v0.031H9.147V12.762H8.707v0.031H8.3v0.031H8.141v0.031H7.984v0.031H7.89v0.031H7.733v0.032H7.639v0.031H7.544v0.031H7.45v0.031H7.356v0.031H7.293v0.032l-0.314.063V13.2l-0.126.031v0.031H6.758V13.3H6.664v0.031H6.6V13.36l-0.22.031V13.36H6.287L6.255,13.3H6.193L6.13,13.234V13.171l-0.094-.063V13.045l-0.063-.031-0.031-.094H5.91l-0.031-.157H5.847V12.7H5.815l-0.031-.126H5.752V12.479H5.721V12.417H5.69l-0.063-.377H5.6l-0.063-.66H5.564v-0.22H5.6l0.063-.314,0.063-.031V10.751l0.063-.031V10.656l0.126-.094V10.531H5.973L6,10.468H6.067V10.436H6.13V10.4H6.287V10.373a0.264,0.264,0,0,0,.251-0.189,0.4,0.4,0,0,0-.157-0.031,0.832,0.832,0,0,1-.346.063v0.031l-0.283.094L5.627,10.5l-0.094.031L5.5,10.656l-0.094.063v0.063H5.375C5.321,10.889,5.425,10.862,5.281,10.908ZM29,20"/>
</svg>
